<svg xmlns="http://www.w3.org/2000/svg" xmlns:xlink="http://www.w3.org/1999/xlink" width="64" zoomAndPan="magnify" viewBox="0 0 48 48" height="64" preserveAspectRatio="xMidYMid meet" version="1.0"><defs><g/></defs><g fill="#000000" fill-opacity="1"><g transform="translate(2.980597, 38.525861)"><g><path d="M 17.25 0 L 0.984375 0 C 0.984375 -1.976562 1.273438 -4.046875 1.859375 -6.203125 C 2.453125 -8.367188 3.210938 -10.515625 4.140625 -12.640625 C 5.078125 -14.765625 6.066406 -16.757812 7.109375 -18.625 C 8.160156 -20.488281 9.140625 -22.117188 10.046875 -23.515625 C 10.671875 -24.460938 11.347656 -25.410156 12.078125 -26.359375 C 12.816406 -27.316406 13.535156 -28.234375 14.234375 -29.109375 C 13.535156 -31.421875 12.851562 -33.160156 12.1875 -34.328125 C 11.53125 -35.503906 10.582031 -36.09375 9.34375 -36.09375 L 9.34375 -37.515625 C 12.125 -37.515625 14.566406 -37.148438 16.671875 -36.421875 C 18.773438 -35.691406 20.585938 -34.722656 22.109375 -33.515625 C 23.628906 -32.304688 24.882812 -30.945312 25.875 -29.4375 C 26.863281 -27.9375 27.613281 -26.421875 28.125 -24.890625 C 29.300781 -21.367188 30.269531 -18.015625 31.03125 -14.828125 C 31.800781 -11.640625 32.738281 -8.765625 33.84375 -6.203125 C 34.539062 -4.628906 35.484375 -3.757812 36.671875 -3.59375 C 37.859375 -3.425781 38.894531 -3.800781 39.78125 -4.71875 L 40.703125 -3.734375 C 39.609375 -2.191406 38.265625 -1.117188 36.671875 -0.515625 C 35.078125 0.0859375 33.582031 0.390625 32.1875 0.390625 C 30.175781 0.390625 28.351562 -0.101562 26.71875 -1.09375 C 25.09375 -2.082031 23.710938 -3.375 22.578125 -4.96875 C 21.441406 -6.5625 20.5625 -8.253906 19.9375 -10.046875 L 11.75 -10.046875 C 12.375 -8.078125 13.171875 -6.210938 14.140625 -4.453125 C 15.117188 -2.691406 16.15625 -1.207031 17.25 0 Z M 19.5 -11.375 C 18.695312 -13.894531 17.898438 -16.582031 17.109375 -19.4375 C 16.328125 -22.300781 15.53125 -25.015625 14.71875 -27.578125 C 14.394531 -27.097656 14.066406 -26.640625 13.734375 -26.203125 C 13.398438 -25.765625 13.070312 -25.289062 12.75 -24.78125 C 11.5 -22.90625 10.816406 -20.785156 10.703125 -18.421875 C 10.597656 -16.066406 10.835938 -13.71875 11.421875 -11.375 Z M 19.5 -11.375 "/></g></g></g><g fill="#b431bb" fill-opacity="1"><g transform="translate(5.867798, 36.552742)"><g><path d="M 16.484375 0 L 0.9375 0 C 0.9375 -1.882812 1.21875 -3.859375 1.78125 -5.921875 C 2.34375 -7.992188 3.066406 -10.046875 3.953125 -12.078125 C 4.847656 -14.109375 5.796875 -16.015625 6.796875 -17.796875 C 7.796875 -19.578125 8.734375 -21.132812 9.609375 -22.46875 C 10.203125 -23.375 10.847656 -24.28125 11.546875 -25.1875 C 12.242188 -26.101562 12.925781 -26.984375 13.59375 -27.828125 C 12.925781 -30.023438 12.273438 -31.6875 11.640625 -32.8125 C 11.015625 -33.9375 10.109375 -34.5 8.921875 -34.5 L 8.921875 -35.859375 C 11.585938 -35.859375 13.925781 -35.503906 15.9375 -34.796875 C 17.945312 -34.097656 19.675781 -33.171875 21.125 -32.015625 C 22.582031 -30.867188 23.78125 -29.578125 24.71875 -28.140625 C 25.664062 -26.703125 26.382812 -25.25 26.875 -23.78125 C 28 -20.425781 28.925781 -17.222656 29.65625 -14.171875 C 30.394531 -11.128906 31.289062 -8.382812 32.34375 -5.9375 C 33.007812 -4.425781 33.910156 -3.59375 35.046875 -3.4375 C 36.179688 -3.28125 37.171875 -3.640625 38.015625 -4.515625 L 38.90625 -3.5625 C 37.851562 -2.09375 36.566406 -1.066406 35.046875 -0.484375 C 33.523438 0.0859375 32.097656 0.375 30.765625 0.375 C 28.835938 0.375 27.09375 -0.0976562 25.53125 -1.046875 C 23.976562 -1.992188 22.660156 -3.226562 21.578125 -4.75 C 20.492188 -6.269531 19.65625 -7.890625 19.0625 -9.609375 L 11.234375 -9.609375 C 11.828125 -7.710938 12.585938 -5.925781 13.515625 -4.25 C 14.441406 -2.570312 15.429688 -1.15625 16.484375 0 Z M 18.640625 -10.875 C 17.867188 -13.28125 17.101562 -15.847656 16.34375 -18.578125 C 15.59375 -21.316406 14.832031 -23.910156 14.0625 -26.359375 C 13.75 -25.898438 13.4375 -25.457031 13.125 -25.03125 C 12.8125 -24.613281 12.5 -24.160156 12.1875 -23.671875 C 10.988281 -21.890625 10.335938 -19.867188 10.234375 -17.609375 C 10.128906 -15.359375 10.359375 -13.113281 10.921875 -10.875 Z M 18.640625 -10.875 "/></g></g></g></svg>